<svg width="24" height="24"  viewBox="0 0 24 24" fill="none" xmlns="http://www.w3.org/2000/svg">
<path d="M12 2L15 8.11672L21 9L16.5 13.4833L18 20.0902L12 17L6 20.0902L7.5 13.4833L3 9L9 8.11672L12 2Z" fill="#E1E2E9" stroke="#E1E2E9" stroke-width="1.5" stroke-linecap="round" stroke-linejoin="round"/>
<path d="M12 2L15 8.11672L21 9L16.5 13.4833L18 20.0902L12 17L6 20.0902L7.5 13.4833L3 9L9 8.11672L12 2Z" fill="#F59E0B" stroke="#F59E0B" stroke-width="1.5" stroke-linecap="round" stroke-linejoin="round"/>
<mask id="mask0_6162_407232" style="mask-type:alpha" maskUnits="userSpaceOnUse" x="2" y="1" width="20" height="20">
<path fill-rule="evenodd" clip-rule="evenodd" d="M12.6734 1.66974C12.5474 1.41283 12.2862 1.25 12 1.25C11.7139 1.25 11.4527 1.41283 11.3267 1.66974L8.50041 7.43218L2.89079 8.258C2.61006 8.29932 2.37669 8.49554 2.28778 8.76501C2.19888 9.03448 2.26966 9.33105 2.47068 9.53132L6.67678 13.7218L5.26863 19.9241C5.20408 20.2085 5.31017 20.5044 5.54064 20.683C5.77112 20.8616 6.08421 20.8904 6.34342 20.7569L12 17.8436L17.6566 20.7569C17.9158 20.8904 18.2289 20.8616 18.4594 20.683C18.6899 20.5044 18.796 20.2085 18.7314 19.9241L17.3233 13.7218L21.5294 9.53132C21.7304 9.33105 21.8012 9.03448 21.7123 8.76501C21.6234 8.49554 21.39 8.29932 21.1093 8.258L15.4996 7.43218L12.6734 1.66974Z" fill="#E1E2E9"/>
</mask>
<g mask="url(#mask0_6162_407232)">
<rect x="12" y="1" width="10" height="20" fill="#E1E2E9"/>
</g>
</svg>